<?xml version="1.0" encoding="utf-8"?>
<!-- Generator: Adobe Illustrator 25.2.3, SVG Export Plug-In . SVG Version: 6.00 Build 0)  -->
<svg version="1.1" id="Layer_1" xmlns="http://www.w3.org/2000/svg" xmlns:xlink="http://www.w3.org/1999/xlink" x="0px" y="0px"
	 viewBox="0 0 1080 405" style="enable-background:new 0 0 1080 405;" xml:space="preserve">
<style type="text/css">
	.st0{fill:#003554;}
	.st1{fill:#05B2DC;}
</style>
<g>
	<g>
		<path class="st0" d="M412.6,92.3c14.4,5.1,21.6,12,21.6,20.6c0,2.8-1.3,8-3.9,15.8l-61.8,178.6c-0.4,1.5-1.2,3.3-2.3,5.5
			c-1.1,2.1-3.9,5-8.5,8.5c-4.6,3.5-10.1,5.3-16.4,5.3c-6.3,0-11.8-1.8-16.4-5.3c-4.6-3.5-7.7-7-9.2-10.5l-37.6-111
			c-23.8,70.4-35.9,106.2-36.4,107.5c-0.4,1.3-1.4,3.1-2.9,5.5c-1.5,2.4-3.2,4.5-5.1,6.4c-4.9,4.9-10.8,7.4-17.7,7.4
			c-6.9,0-12.5-1.6-16.9-4.8c-4.4-3.2-7.3-6.4-8.8-9.7l-2.3-4.8L126,128.6c-2.4-7.1-3.5-12.3-3.5-15.8c0-8.6,7.2-15.3,21.6-20.3
			c6.2-2.1,11.8-3.2,16.9-3.2c5,0,8.9,1.7,11.6,5.1c2.7,3.4,5.1,8.7,7.2,15.8l35.4,107.5l35.1-105.9c3-9,8.5-15.2,16.4-18.7
			c3.4-1.5,7.9-2.3,13.4-2.3s10.6,1.8,15.3,5.3c4.7,3.5,7.7,7,9,10.5l37,111.7l35.4-108.1c1.7-4.9,3.1-8.6,4.2-10.9
			c1.1-2.4,3.1-4.7,6-6.9c2.9-2.3,6.5-3.4,10.8-3.4C401.8,89.1,406.8,90.1,412.6,92.3z"/>
		<path class="st0" d="M498.9,125.9c-1.6,3.1-4.5,5.3-8.5,6.6c-4.1,1.3-9.5,1.9-16.2,1.9s-12.2-0.6-16.2-1.9
			c-4.1-1.3-6.9-3.5-8.5-6.8c-1.6-3.2-2.6-6.1-2.9-8.5c-0.3-2.5-0.5-6.2-0.5-11.1c0-4.9,0.2-8.6,0.5-11.1c0.3-2.5,1.2-5.2,2.7-8.2
			c3-5.8,11.4-8.7,25.1-8.7c13.5,0,21.7,2.9,24.5,8.7c1.7,3.2,2.7,6.1,3.1,8.5c0.3,2.5,0.5,6.2,0.5,11.1c0,4.9-0.2,8.6-0.5,11.1
			C501.5,120,500.5,122.8,498.9,125.9z M446,185.6c0-4.9,0.2-8.6,0.5-11.1c0.3-2.5,1.2-5.3,2.7-8.5c3-5.6,11.4-8.4,25.1-8.4
			c10.3,0,17.6,1.8,21.9,5.5c3.6,3,5.6,7.6,5.8,13.8c0.2,2.1,0.3,5.3,0.3,9.3v112.6c0,4.9-0.2,8.6-0.5,11.1
			c-0.3,2.5-1.3,5.3-3.1,8.5c-2.8,5.6-11,8.4-24.8,8.4c-13.5,0-21.8-2.9-24.8-8.7c-1.5-3.2-2.4-6-2.7-8.4c-0.3-2.4-0.5-6.1-0.5-11.3
			V185.6z"/>
		<path class="st0" d="M638.7,86.6c1.6-3.1,4.4-5.3,8.5-6.6c4.1-1.3,9.5-1.9,16.2-1.9s12.2,0.6,16.2,1.9c4.1,1.3,6.9,3.5,8.5,6.8
			c1.6,3.2,2.6,6.1,2.9,8.5c0.3,2.5,0.5,6.2,0.5,11.1v192.1c0,4.9-0.2,8.6-0.5,11.1c-0.3,2.5-1.3,5.2-3.1,8.2
			c-3.2,5.8-12.3,8.7-27.2,8.7c-14.9,0-23.2-5.3-24.9-15.8c-9,10.3-21.6,15.4-37.6,15.4c-19.3,0-36.9-8.4-52.8-25.3
			c-15.9-16.8-23.8-36.5-23.8-58.9c0-22.4,8-42.1,24-59.1c16-16.9,33.5-25.4,52.6-25.4c15.9,0,28.2,5.4,37,16.1v-67.6
			c0-4.9,0.2-8.6,0.5-11.1C636.1,92.5,637.1,89.8,638.7,86.6z M586.4,261.6c5.6,5.8,12.3,8.7,20.3,8.7c7.9,0,14.5-2.9,19.8-8.7
			c5.3-5.8,7.9-12.2,7.9-19.1c0-7-2.5-13.5-7.6-19.5c-5-6-11.9-9-20.4-9c-8.6,0-15.4,3-20.6,8.9c-5.1,5.9-7.7,12.4-7.7,19.5
			S580.9,255.8,586.4,261.6z"/>
		<path class="st0" d="M821.7,178.5c18-16.7,38.6-25.1,61.8-25.1c23.2,0,43.6,8.3,61.5,24.9c17.8,16.6,26.7,37.8,26.7,63.6
			c0,17.8-4.6,33.6-13.8,47.5c-9.2,13.8-20.4,24-33.6,30.6c-13.2,6.5-26.9,9.8-41,9.8c-14.2,0-27.9-3.5-41.2-10.5
			c-13.3-7-24.5-17.3-33.6-30.9c-9.1-13.6-13.7-29-13.7-46.2C794.6,216.5,803.6,195.3,821.7,178.5z M861.9,265.3
			c6.9,5.3,13.8,7.9,20.9,7.9c7.1,0,14.2-2.7,21.2-8c7.1-5.4,10.6-13.3,10.6-23.8c0-10.5-3.3-18.3-10-23.5
			c-6.7-5.1-13.8-7.7-21.6-7.7c-7.7,0-14.9,2.7-21.6,8c-6.7,5.4-10,13.3-10,23.7C851.6,252.2,855,260,861.9,265.3z"/>
	</g>
	<g>
		<path class="st1" d="M771.8,86.8c-3.2-5.6-11.3-8.4-24.1-8.4c-13.5,0-21.8,2.8-24.8,8.4c-1.5,3-2.4,5.7-2.7,8
			c-0.3,2.4-0.5,6-0.5,10.9c0,4.9,0.2,8.6,0.5,11.1c0.3,2.5,1.3,5.3,2.9,8.4c1.6,3.1,4.3,5.3,8.2,6.6c3.9,1.3,9.1,1.9,15.8,1.9
			c6.6,0,12-0.6,15.9-1.8c4-1.2,6.8-3.3,8.5-6.3c1.7-3,2.7-5.7,3.1-8c0.3-2.4,0.5-5.9,0.5-10.6v-1.9c0-4.7-0.2-8.3-0.5-10.6
			C774.2,92.2,773.3,89.6,771.8,86.8z"/>
		<path class="st1" d="M1022.5,59.6C985.3,21.2,935.6,0,882.8,0H197.2C144.4,0,94.7,21.2,57.5,59.6C20.4,97.8,0,148.6,0,202.5
			c0,53.9,20.4,104.7,57.5,142.9c37.3,38.4,86.9,59.6,139.7,59.6h487.5c0.3,0,0.5,0,0.8,0c49.4-0.4,89.5-40.6,89.5-90.2V184.3
			c0-4.9-0.2-8.6-0.5-11.1c-0.3-2.5-1.3-5.3-2.9-8.4c-1.6-3.1-4.3-5.3-8.2-6.6s-9.1-1.9-15.8-1.9c-6.7,0-12,0.6-15.9,1.9
			c-4,1.3-7,3.7-9,7.2c-2,3.5-3.1,9.1-3.1,16.6v132.6c0,0,0,0.1,0,0.1c0,0,0,0,0,0c0,19.4-15.7,35-35.1,35H197.2
			c-78.3,0-142-66.1-142-147.3s63.7-147.3,142-147.3h685.6c78.3,0,142,66.1,142,147.3c0,81.2-63.7,147.3-142,147.3h-57.2
			c-15.2,0-27.6,12.4-27.6,27.6s12.4,27.6,27.6,27.6h57.2c52.8,0,102.5-21.2,139.7-59.6c37.1-38.2,57.5-89,57.5-142.9
			S1059.6,97.8,1022.5,59.6z"/>
	</g>
</g>
</svg>
